{
  "accessors": [
    {
      "bufferView": 2,
      "componentType": 5126,
      "count": 5856,
      "max": [
        5.839250564575195,
        6.072887897491455,
        3.620528221130371
      ],
      "min": [
        -5.839250564575195,
        -3.8392486572265625,
        -4.281623840332031
      ],
      "type": "VEC3"
    },
    {
      "bufferView": 2,
      "byteOffset": 70272,
      "componentType": 5126,
      "count": 5856,
      "max": [
        1.0,
        1.0,
        1.0
      ],
      "min": [
        -1.0,
        -1.0,
        -1.0
      ],
      "type": "VEC3"
    },
    {
      "bufferView": 3,
      "componentType": 5126,
      "count": 5856,
      "max": [
        1.0,
        0.9999999403953552,
        0.9999964237213135,
        1.0
      ],
      "min": [
        -1.0,
        -1.0,
        -0.9999930262565613,
        1.0
      ],
      "type": "VEC4"
    },
    {
      "bufferView": 1,
      "componentType": 5126,
      "count": 5856,
      "max": [
        0.9956021308898926,
        0.99755859375
      ],
      "min": [
        0.00244140625,
        0.0024428791366517544
      ],
      "type": "VEC2"
    },
    {
      "bufferView": 0,
      "componentType": 5125,
      "count": 29574,
      "type": "SCALAR"
    },
    {
      "bufferView": 2,
      "byteOffset": 140544,
      "componentType": 5126,
      "count": 4,
      "max": [
        0.5,
        0.5,
        0.5
      ],
      "min": [
        -0.5,
        -0.5,
        0.5
      ],
      "type": "VEC3"
    },
    {
      "bufferView": 2,
      "byteOffset": 140592,
      "componentType": 5126,
      "count": 4,
      "max": [
        0.0,
        0.0,
        1.0
      ],
      "min": [
        0.0,
        0.0,
        1.0
      ],
      "type": "VEC3"
    },
    {
      "bufferView": 1,
      "byteOffset": 46848,
      "componentType": 5126,
      "count": 4,
      "max": [
        0.99755859375,
        0.99755859375
      ],
      "min": [
        0.00244140625,
        0.00244140625
      ],
      "type": "VEC2"
    },
    {
      "bufferView": 0,
      "byteOffset": 118296,
      "componentType": 5125,
      "count": 6,
      "type": "SCALAR"
    },
    {
      "bufferView": 2,
      "byteOffset": 140640,
      "componentType": 5126,
      "count": 1352,
      "max": [
        2.6516380310058594,
        0.41475799679756165,
        2.6516380310058594
      ],
      "min": [
        -2.6516380310058594,
        -0.4035799205303192,
        -2.6516380310058594
      ],
      "type": "VEC3"
    },
    {
      "bufferView": 2,
      "byteOffset": 156864,
      "componentType": 5126,
      "count": 1352,
      "max": [
        1.0,
        0.9995072484016418,
        1.0
      ],
      "min": [
        -1.0,
        -0.9986922740936279,
        -1.0
      ],
      "type": "VEC3"
    },
    {
      "bufferView": 3,
      "byteOffset": 93696,
      "componentType": 5126,
      "count": 1352,
      "max": [
        0.9999215006828308,
        0.9999756217002869,
        0.9999311566352844,
        1.0
      ],
      "min": [
        -0.9999704360961914,
        -0.9999399781227112,
        -0.9999998807907104,
        1.0
      ],
      "type": "VEC4"
    },
    {
      "bufferView": 1,
      "byteOffset": 46880,
      "componentType": 5126,
      "count": 1352,
      "max": [
        0.9973424673080444,
        0.913493275642395
      ],
      "min": [
        0.05046579986810684,
        0.00244140625
      ],
      "type": "VEC2"
    },
    {
      "bufferView": 0,
      "byteOffset": 118320,
      "componentType": 5125,
      "count": 6600,
      "type": "SCALAR"
    },
    {
      "bufferView": 2,
      "byteOffset": 173088,
      "componentType": 5126,
      "count": 122,
      "max": [
        1.3633131980895996,
        0.7879657745361328,
        3.2766926288604736
      ],
      "min": [
        -1.3633131980895996,
        -0.7879657745361328,
        3.2766926288604736
      ],
      "type": "VEC3"
    },
    {
      "bufferView": 2,
      "byteOffset": 174552,
      "componentType": 5126,
      "count": 122,
      "max": [
        6.68176335238968e-06,
        0.0,
        1.0
      ],
      "min": [
        -1.3363604011829011e-05,
        0.0,
        1.0
      ],
      "type": "VEC3"
    },
    {
      "bufferView": 1,
      "byteOffset": 57696,
      "componentType": 5126,
      "count": 122,
      "max": [
        1.0,
        1.0
      ],
      "min": [
        0.0,
        0.0
      ],
      "type": "VEC2"
    },
    {
      "bufferView": 0,
      "byteOffset": 144720,
      "componentType": 5125,
      "count": 576,
      "type": "SCALAR"
    },
    {
      "bufferView": 4,
      "componentType": 5126,
      "count": 31,
      "max": [
        1.0
      ],
      "min": [
        0.0
      ],
      "type": "SCALAR"
    },
    {
      "bufferView": 5,
      "componentType": 5126,
      "count": 31,
      "max": [
        0.0,
        0.0,
        0.0
      ],
      "min": [
        0.0,
        -0.09081341326236725,
        0.0
      ],
      "type": "VEC3"
    },
    {
      "bufferView": 4,
      "byteOffset": 124,
      "componentType": 5126,
      "count": 31,
      "max": [
        1.0
      ],
      "min": [
        0.0
      ],
      "type": "SCALAR"
    },
    {
      "bufferView": 5,
      "byteOffset": 372,
      "componentType": 5126,
      "count": 31,
      "max": [
        0.0,
        0.13867709040641785,
        5.551115123125783e-17
      ],
      "min": [
        0.0,
        -0.005819506943225861,
        5.551115123125783e-17
      ],
      "type": "VEC3"
    },
    {
      "bufferView": 4,
      "byteOffset": 248,
      "componentType": 5126,
      "count": 31,
      "max": [
        1.0
      ],
      "min": [
        0.0
      ],
      "type": "SCALAR"
    },
    {
      "bufferView": 6,
      "componentType": 5126,
      "count": 31,
      "max": [
        0.0,
        0.7071067690849304,
        0.0,
        1.0
      ],
      "min": [
        0.0,
        0.0,
        0.0,
        0.7071067690849304
      ],
      "type": "VEC4"
    },
    {
      "bufferView": 4,
      "byteOffset": 372,
      "componentType": 5126,
      "count": 18,
      "max": [
        1.0
      ],
      "min": [
        0.0
      ],
      "type": "SCALAR"
    },
    {
      "bufferView": 5,
      "byteOffset": 744,
      "componentType": 5126,
      "count": 18,
      "max": [
        1.0,
        1.0,
        1.0
      ],
      "min": [
        1.0,
        0.009999999776482582,
        1.0
      ],
      "type": "VEC3"
    }
  ],
  "animations": [
    {
      "channels": [
        {
          "sampler": 0,
          "target": {
            "node": 5,
            "path": "translation"
          }
        },
        {
          "sampler": 1,
          "target": {
            "node": 11,
            "path": "translation"
          }
        },
        {
          "sampler": 2,
          "target": {
            "node": 11,
            "path": "rotation"
          }
        },
        {
          "sampler": 3,
          "target": {
            "node": 13,
            "path": "scale"
          }
        }
      ],
      "name": "Take 001",
      "samplers": [
        {
          "input": 18,
          "interpolation": "LINEAR",
          "output": 19
        },
        {
          "input": 20,
          "interpolation": "LINEAR",
          "output": 21
        },
        {
          "input": 22,
          "interpolation": "LINEAR",
          "output": 23
        },
        {
          "input": 24,
          "interpolation": "LINEAR",
          "output": 25
        }
      ]
    }
  ],
  "asset": {
    "extras": {
      "author": "JiHoBoBN (https://sketchfab.com/bbbjihwan)",
      "license": "CC-BY-4.0 (http://creativecommons.org/licenses/by/4.0/)",
      "source": "https://sketchfab.com/3d-models/small-robot-32df4a963e4e48fe91c062e37c02e27b",
      "title": "small robot"
    },
    "generator": "Sketchfab-15.27.0",
    "version": "2.0"
  },
  "bufferViews": [
    {
      "buffer": 0,
      "byteLength": 147024,
      "name": "floatBufferViews",
      "target": 34963
    },
    {
      "buffer": 0,
      "byteLength": 58672,
      "byteOffset": 147024,
      "byteStride": 8,
      "name": "floatBufferViews",
      "target": 34962
    },
    {
      "buffer": 0,
      "byteLength": 176016,
      "byteOffset": 205696,
      "byteStride": 12,
      "name": "floatBufferViews",
      "target": 34962
    },
    {
      "buffer": 0,
      "byteLength": 115328,
      "byteOffset": 381712,
      "byteStride": 16,
      "name": "floatBufferViews",
      "target": 34962
    },
    {
      "buffer": 0,
      "byteLength": 444,
      "byteOffset": 497040,
      "name": "floatBufferViews"
    },
    {
      "buffer": 0,
      "byteLength": 960,
      "byteOffset": 497484,
      "byteStride": 12,
      "name": "floatBufferViews"
    },
    {
      "buffer": 0,
      "byteLength": 496,
      "byteOffset": 498444,
      "byteStride": 16,
      "name": "floatBufferViews"
    }
  ],
  "buffers": [
    {
      "byteLength": 498940,
      "uri": "scene.bin"
    }
  ],
  "extensionsUsed": [
    "KHR_materials_clearcoat",
    "KHR_materials_specular",
    "KHR_materials_emissive_strength"
  ],
  "images": [
    {
      "uri": "textures/explainer_Body_Mat_baseColor.png"
    },
    {
      "uri": "textures/explainer_Body_Mat_metallicRoughness.png"
    },
    {
      "uri": "textures/explainer_Body_Mat_emissive.png"
    },
    {
      "uri": "textures/explainer_Body_Mat_normal.png"
    },
    {
      "uri": "textures/explainer_Body_Mat_specularf0.png"
    },
    {
      "uri": "textures/explainer_Face_Mat_baseColor.png"
    },
    {
      "uri": "textures/explainer_Face_Mat_emissive.png"
    }
  ],
  "materials": [
    {
      "doubleSided": true,
      "emissiveFactor": [
        0.8442165542076719,
        0.8442165542076719,
        0.8442165542076719
      ],
      "emissiveTexture": {
        "index": 2
      },
      "extensions": {
        "KHR_materials_clearcoat": {
          "clearcoatFactor": 1.0,
          "clearcoatRoughnessFactor": 0.04
        },
        "KHR_materials_specular": {
          "specularColorFactor": [
            1.0,
            1.0,
            1.0
          ],
          "specularFactor": 1.0,
          "specularTexture": {
            "index": 4
          }
        }
      },
      "name": "explainer_Body_Mat",
      "normalTexture": {
        "index": 3
      },
      "pbrMetallicRoughness": {
        "baseColorTexture": {
          "index": 0
        },
        "metallicRoughnessTexture": {
          "index": 1
        },
        "roughnessFactor": 0.577665433546319
      }
    },
    {
      "doubleSided": true,
      "emissiveFactor": [
        1.0,
        1.0,
        1.0
      ],
      "emissiveTexture": {
        "index": 6
      },
      "extensions": {
        "KHR_materials_emissive_strength": {
          "emissiveStrength": 1.4531594901651435
        }
      },
      "name": "explainer_Face_Mat",
      "pbrMetallicRoughness": {
        "baseColorTexture": {
          "index": 5
        },
        "metallicFactor": 0.0,
        "roughnessFactor": 0.6
      }
    },
    {
      "doubleSided": true,
      "emissiveFactor": [
        1.0,
        0.967880091314112,
        0.8912862790724112
      ],
      "extensions": {
        "KHR_materials_emissive_strength": {
          "emissiveStrength": 7.664377436931352
        }
      },
      "name": "standardSurface2",
      "pbrMetallicRoughness": {
        "metallicFactor": 0.0,
        "roughnessFactor": 0.6
      }
    }
  ],
  "meshes": [
    {
      "name": "explainer_Body_explainer_Body_Mat_0",
      "primitives": [
        {
          "attributes": {
            "NORMAL": 1,
            "POSITION": 0,
            "TANGENT": 2,
            "TEXCOORD_0": 3
          },
          "indices": 4,
          "material": 0,
          "mode": 4
        }
      ]
    },
    {
      "name": "explainer_Face_explainer_Face_Mat_0",
      "primitives": [
        {
          "attributes": {
            "NORMAL": 6,
            "POSITION": 5,
            "TEXCOORD_0": 7
          },
          "indices": 8,
          "material": 1,
          "mode": 4
        }
      ]
    },
    {
      "name": "explainer_Ring_explainer_Body_Mat_0",
      "primitives": [
        {
          "attributes": {
            "NORMAL": 10,
            "POSITION": 9,
            "TANGENT": 11,
            "TEXCOORD_0": 12
          },
          "indices": 13,
          "material": 0,
          "mode": 4
        }
      ]
    },
    {
      "name": "explainer_Eye_standardSurface2_0",
      "primitives": [
        {
          "attributes": {
            "NORMAL": 15,
            "POSITION": 14,
            "TEXCOORD_0": 16
          },
          "indices": 17,
          "material": 2,
          "mode": 4
        }
      ]
    }
  ],
  "nodes": [
    {
      "children": [
        1
      ],
      "matrix": [
        1.0,
        0.0,
        0.0,
        0.0,
        0.0,
        2.220446049250313e-16,
        -1.0,
        0.0,
        0.0,
        1.0,
        2.220446049250313e-16,
        0.0,
        0.0,
        0.0,
        0.0,
        1.0
      ],
      "name": "Sketchfab_model"
    },
    {
      "children": [
        2
      ],
      "matrix": [
        0.009999999776482582,
        0.0,
        0.0,
        0.0,
        0.0,
        0.0,
        0.009999999776482582,
        0.0,
        0.0,
        -0.009999999776482582,
        0.0,
        0.0,
        0.0,
        0.0,
        0.0,
        1.0
      ],
      "name": "25b5fe9c75174b08a205fd579c1c7480.fbx"
    },
    {
      "children": [
        3
      ],
      "name": "Object_2"
    },
    {
      "children": [
        4
      ],
      "name": "RootNode"
    },
    {
      "children": [
        5,
        10,
        13
      ],
      "name": "explainer_grp"
    },
    {
      "children": [
        6,
        8
      ],
      "name": "explainer_body_grp"
    },
    {
      "children": [
        7
      ],
      "name": "explainer_Body"
    },
    {
      "mesh": 0,
      "name": "explainer_Body_explainer_Body_Mat_0"
    },
    {
      "children": [
        9
      ],
      "name": "explainer_Face",
      "scale": [
        4.174559593200684,
        4.174559593200684,
        4.174559593200684
      ],
      "translation": [
        0.0,
        0.0,
        1.1712831258773804
      ]
    },
    {
      "mesh": 1,
      "name": "explainer_Face_explainer_Face_Mat_0"
    },
    {
      "children": [
        11
      ],
      "name": "explainer_Ring_grp",
      "translation": [
        0.0,
        -5.264517784118652,
        0.0
      ]
    },
    {
      "children": [
        12
      ],
      "name": "explainer_Ring",
      "rotation": [
        -0.0,
        0.7071068286895752,
        0.0,
        0.7071068286895752
      ],
      "translation": [
        0.0,
        -0.005819506943225861,
        5.551115123125783e-17
      ]
    },
    {
      "mesh": 2,
      "name": "explainer_Ring_explainer_Body_Mat_0"
    },
    {
      "children": [
        14
      ],
      "name": "explainer_Eye",
      "translation": [
        0.0,
        0.015929345041513443,
        0.0
      ]
    },
    {
      "mesh": 3,
      "name": "explainer_Eye_standardSurface2_0"
    }
  ],
  "samplers": [
    {
      "magFilter": 9729,
      "minFilter": 9987,
      "wrapS": 10497,
      "wrapT": 10497
    }
  ],
  "scene": 0,
  "scenes": [
    {
      "name": "Sketchfab_Scene",
      "nodes": [
        0
      ]
    }
  ],
  "textures": [
    {
      "sampler": 0,
      "source": 0
    },
    {
      "sampler": 0,
      "source": 1
    },
    {
      "sampler": 0,
      "source": 2
    },
    {
      "sampler": 0,
      "source": 3
    },
    {
      "sampler": 0,
      "source": 4
    },
    {
      "sampler": 0,
      "source": 5
    },
    {
      "sampler": 0,
      "source": 6
    }
  ]
}
